HIERARCHY
ROOT Hips
{
	OFFSET 0 0 0
	CHANNELS 6 Xposition Yposition Zposition Zrotation Yrotation Xrotation
	JOINT Chest
	{
		OFFSET 0 33 0
		CHANNELS 3 Zrotation Yrotation Xrotation
		JOINT Chest2
		{
			OFFSET 0 23 0
			CHANNELS 3 Zrotation Yrotation Xrotation
			JOINT Neck
			{
				OFFSET 0 7 0
				CHANNELS 3 Zrotation Yrotation Xrotation
				JOINT Head
				{
					OFFSET 0 15 0
					CHANNELS 3 Zrotation Yrotation Xrotation
					End Site
					{
						OFFSET 0.0 0.0 0.0
					}
				}
			}
			JOINT LeftShoulder
			{
				OFFSET -14 0 0
				CHANNELS 3 Zrotation Yrotation Xrotation
				JOINT LeftElbow
				{
					OFFSET -25 0 0
					CHANNELS 3 Zrotation Yrotation Xrotation
					JOINT LeftWrist
					{
						OFFSET -23 0 0
						CHANNELS 3 Zrotation Yrotation Xrotation
						JOINT LeftHand
						{
							OFFSET -8.32 0 0
							CHANNELS 3 Zrotation Yrotation Xrotation
							End Site
							{
								OFFSET 0.0 0.0 0.0
							}
						}
					}
				}
			}
			JOINT RightShoulder
			{
				OFFSET 14 0 0
				CHANNELS 3 Zrotation Yrotation Xrotation
				JOINT RightElbow
				{
					OFFSET 25 0 0
					CHANNELS 3 Zrotation Yrotation Xrotation
					JOINT RightWrist
					{
						OFFSET 23 0 0
						CHANNELS 3 Zrotation Yrotation Xrotation
						JOINT RightHand
						{
							OFFSET 8.32 0 0
							CHANNELS 3 Zrotation Yrotation Xrotation
							End Site
							{
								OFFSET 0.0 0.0 0.0
							}
						}
					}
				}
			}
		}
	}
	JOINT HipLeft
	{
		OFFSET -9.52 0 0
		CHANNELS 3 Zrotation Yrotation Xrotation
		JOINT LeftKnee
		{
			OFFSET 0 -37.32 0
			CHANNELS 3 Zrotation Yrotation Xrotation
			JOINT LeftAnkle
			{
				OFFSET 0 -34.6 0
				CHANNELS 3 Zrotation Yrotation Xrotation
				JOINT LeftFoot
				{
					OFFSET 0 0 8.91
					CHANNELS 3 Zrotation Yrotation Xrotation
					End Site
					{
						OFFSET 0.0 0.0 0.0
					}
				}
			}
		}
	}
	JOINT RightHip
	{
		OFFSET 9.52 0 0
		CHANNELS 3 Zrotation Yrotation Xrotation
		JOINT RightKnee
		{
			OFFSET 0 -37.32 0
			CHANNELS 3 Zrotation Yrotation Xrotation
			JOINT RightAnkle
			{
				OFFSET 0 -34.6 0
				CHANNELS 3 Zrotation Yrotation Xrotation
				JOINT RightFoot
				{
					OFFSET 0 0 8.91
					CHANNELS 3 Zrotation Yrotation Xrotation
					End Site
					{
						OFFSET 0.0 0.0 0.0
					}
				}
			}
		}
	}
}

MOTION
Frames: 37
Frame Time: 0.033333
-17.1419 34.4964 219.584 177.735 1.4591 -167.96 0.0758321 -0.092314 1.81418 -1.78467 -0.0589058 2.98692 0 0 0 0 0 0 0 0 0 0 0 0 0 0 0 0 0 0 0 0 0 0 0 0 0 0 0 0 0 0 0 0 0 0 0 0 -180 -7.75683e-07 -29.0472 0 0 0 0 0 0 0 0 0 -180 -2.16024e-06 -32.5167 0 0 0 
-17.1387 34.4892 219.654 177.886 1.58786 -168.288 -0.0326412 -0.0738278 1.63503 -1.64522 -0.0362702 2.20831 0 0 0 0 0 0 0 0 0 0 0 0 0 0 0 0 0 0 0 0 0 0 0 0 0 0 0 0 0 0 0 0 0 0 0 0 -180 -2.09557e-06 -30.3628 0 0 0 0 0 0 0 0 0 -180 3.77513e-07 -33.1485 0 0 0 
-17.1601 34.4639 219.723 178 1.51885 -168.761 -0.0533487 -0.0593619 1.41458 -1.60233 -0.0357191 2.55351 0 0 0 0 0 0 0 0 0 0 0 0 0 0 0 0 0 0 0 0 0 0 0 0 0 0 0 0 0 0 0 0 0 0 0 0 -180 3.01959e-07 -30.6629 0 0 3.4151e-06 0 0 0 0 0 0 -180 1.41735e-06 -35.2574 0 0 0 
-17.224 34.4281 219.794 178.262 1.57202 -169.269 -0.0665837 -0.0469088 1.30456 -1.04389 -0.0594658 3.35049 0 0 0 0 0 0 0 0 0 0 0 0 0 0 0 0 0 0 0 0 0 0 0 0 0 0 0 0 0 0 0 0 0 0 0 0 -180 -2.9271e-06 -31.5831 0 0 0 0 0 0 0 0 0 -180 -6.98975e-07 -35.5438 0 0 0 
-17.3267 34.4281 219.922 178.477 1.64141 -169.864 0.0179803 -0.0422194 1.34479 -1.19021 -0.0335824 3.16054 -5.33609e-08 -7.95139e-16 -1.70755e-06 -5.33609e-08 -7.95139e-16 -1.70755e-06 0 0 0 0 0 0 0 0 0 0 0 0 0 0 0 0 0 0 0 0 0 0 0 0 0 0 0 0 0 0 -180 -1.16228e-06 -30.4774 0 0 0 0 0 0 0 0 0 -180 -1.42874e-06 -36.2116 0 0 0 
-17.4944 34.3849 220.099 178.598 1.47053 -170.347 0.0900601 -0.0426372 1.428 -1.23276 -0.0248268 2.9754 0 0 0 0 0 0 0 0 0 0 0 0 0 0 0 0 0 0 0 0 0 0 0 0 0 0 0 0 0 0 0 0 0 0 0 0 -180 -3.93267e-06 -30.4355 0 0 0 0 0 0 0 0 0 -180 -1.15709e-06 -36.2671 0 0 -1.33402e-08 
-17.6677 34.3255 220.323 178.881 1.89166 -170.696 0.0807821 -0.0315232 1.52576 -0.933472 -0.0136387 3.1194 0 -6.67011e-09 0 0 -6.67011e-09 0 0 0 0 0 0 0 0 0 0 0 0 0 0 0 0 0 0 0 0 0 0 0 0 0 0 0 0 0 0 0 -180 -1.05145e-06 -31.1806 0 0 0 0 0 0 0 0 0 -180 2.75608e-07 -36.1974 0 0 0 
-17.9217 34.2892 220.53 179.01 1.85465 -171.048 0.103821 -0.0216669 1.55828 -0.639693 -0.00983095 3.58223 0 0 0 0 0 0 0 0 0 0 0 0 0 0 0 0 0 0 0 0 0 0 0 0 0 0 0 0 0 0 0 0 0 0 0 0 -180 -2.17988e-06 -30.4817 0 0 0 0 0 0 0 0 0 -180 2.26156e-07 -36.3235 2.13443e-07 -2.48481e-17 1.33402e-08 
-18.0702 34.2703 220.66 179.11 1.62857 -171.341 0.102554 -0.015982 1.54183 -0.773359 0.010459 3.33664 0 0 0 0 0 0 0 0 0 0 0 0 0 0 0 0 0 0 0 0 0 0 0 0 0 0 0 0 0 0 0 0 0 0 0 0 -180 -8.33106e-07 -29.792 0 0 0 0 0 0 0 0 0 -180 1.27716e-06 -35.2257 0 0 0 
-18.2511 34.2655 220.819 179.286 1.88087 -171.606 0.104886 -0.00987759 1.57437 -1.04431 0.040554 3.38896 0 0 0 0 0 0 0 0 0 0 0 0 0 0 0 0 0 0 0 0 0 0 0 0 0 0 0 0 0 0 0 0 0 0 0 0 -180 -1.15094e-06 -29.5797 0 0 0 0 0 0 0 0 0 -180 -7.10902e-07 -35.329 0 0 0 
-18.7059 34.2341 221.063 179.213 2.19194 -171.728 0.0992427 -0.00692475 1.64386 -1.07771 0.0490697 3.35769 0 0 0 0 0 0 0 0 0 0 0 0 0 0 0 0 0 0 0 0 0 0 0 0 0 0 0 0 0 0 0 0 0 0 0 0 -180 -2.6872e-07 -29.2942 0 0 0 0 0 0 0 0 0 -180 4.94224e-07 -35.2902 0 0 0 
-18.97 34.2201 221.191 179.167 1.85911 -171.863 0.110698 -0.00605033 1.66149 -1.23882 0.0584023 3.24443 0 0 0 0 0 0 0 0 0 0 0 0 0 0 0 0 0 0 0 0 0 0 0 0 0 0 0 0 0 0 0 0 0 0 0 0 -180 -1.01011e-06 -29.0635 0 0 0 0 0 0 0 0 0 -180 1.1231e-06 -35.2961 0 0 0 
-19.1614 34.1773 221.259 179.171 1.67358 -172.008 0.0947904 -0.00419497 1.63938 -1.28367 0.0667208 3.35779 0 0 0 0 0 0 0 0 0 0 0 0 0 0 0 0 0 0 0 0 0 0 0 0 0 0 0 0 0 0 0 0 0 0 0 0 -180 4.15003e-08 -28.9116 0 0 0 0 0 0 0 0 0 -180 -8.46742e-07 -35.2764 4.26887e-07 8.53774e-07 3.18055e-15 
-19.3947 34.1504 221.36 179.279 1.88811 -172.201 0.0865714 0.00117624 1.62319 -1.24217 0.073435 3.27354 0 0 0 0 0 0 0 0 0 0 0 0 0 0 0 0 0 0 0 0 0 0 0 0 0 0 0 0 0 0 0 0 0 0 0 0 -180 5.87367e-07 -28.9935 0 0 0 0 0 0 0 0 0 -180 -1.03335e-06 -34.8104 -1.98785e-16 8.53774e-07 -2.66804e-08 
-19.7346 34.0965 221.457 179.19 1.90382 -172.307 0.0839306 0.00330941 1.65888 -1.2474 0.0811206 3.40854 1.33402e-08 0 0 1.33402e-08 0 0 0 0 0 0 0 0 0 0 0 0 0 0 0 0 0 0 0 0 0 0 0 0 0 0 0 0 0 0 0 0 -180 1.74468e-07 -29.1851 0 0 0 0 0 0 0 0 0 -180 -1.03005e-06 -34.7318 0 0 0 
-19.9564 34.0589 221.519 179.138 1.87084 -172.373 0.0846948 0.0024017 1.67844 -1.4452 0.0883919 3.31175 0 0 0 0 0 0 0 0 0 0 0 0 0 0 0 0 0 0 0 0 0 0 0 0 0 0 0 0 0 0 0 0 0 0 0 0 -180 -1.55223e-06 -29.5011 -1.27222e-14 -4.26887e-07 3.41509e-06 0 0 0 0 0 0 -180 1.83797e-06 -34.4064 0 0 0 
-20.129 34.0424 221.545 179.109 1.59167 -172.441 0.0934497 0.00202537 1.68474 -1.39138 0.0846553 3.31717 0 0 0 0 0 0 0 0 0 0 0 0 0 0 0 0 0 0 0 0 0 0 0 0 0 0 0 0 0 0 0 0 0 0 0 0 -180 -8.24466e-07 -29.6245 0 0 0 0 0 0 0 0 0 -180 2.09974e-06 -34.5194 0 0 0 
-20.3298 34.0289 221.548 179.003 1.20237 -172.511 0.100123 -0.00105206 1.70058 -1.37538 0.0802865 3.42837 0 0 0 0 0 0 0 0 0 0 0 0 0 0 0 0 0 0 0 0 0 0 0 0 0 0 0 0 0 0 0 0 0 0 0 0 -180 5.99254e-07 -29.8185 0 0 0 0 0 0 0 0 0 -180 -1.22742e-06 -33.6658 0 0 0 
-20.3739 34.0203 221.554 179.113 1.10562 -172.58 0.0521695 0.00160866 1.65536 -1.06963 0.0716249 3.64143 0 0 0 0 0 0 0 0 0 0 0 0 0 0 0 0 0 0 0 0 0 0 0 0 0 0 0 0 0 0 0 0 0 0 0 0 -180 -9.79033e-07 -30.1877 0 0 0 0 0 0 0 0 0 -180 -4.12892e-07 -33.5433 0 0 -5.33609e-08 
-20.4759 34.0226 221.529 179.114 0.879594 -172.664 0.0525611 0.000196175 1.65089 -1.13412 0.0727888 3.64991 0 0 0 0 0 0 0 0 0 0 0 0 0 0 0 0 0 0 0 0 0 0 0 0 0 0 0 0 0 0 0 0 0 0 0 0 -180 -1.67439e-06 -30.384 0 0 0 0 0 0 0 0 0 -180 -1.00457e-06 -33.5905 0 0 3.41509e-06 
-20.7813 34.0162 221.535 178.913 0.766724 -172.729 0.0473015 -0.00488156 1.69237 -1.33442 0.0761372 3.7255 0 0 0 0 0 0 0 0 0 0 0 0 0 0 0 0 0 0 0 0 0 0 0 0 0 0 0 0 0 0 0 0 0 0 0 0 -180 4.80842e-08 -30.3614 -2.54444e-14 -8.53774e-07 3.41509e-06 0 0 0 0 0 0 -180 1.1912e-06 -33.5261 0 0 0 
-20.9511 34.0078 221.489 178.833 0.545894 -172.794 0.0687484 -0.00766241 1.71077 -1.44044 0.0781664 3.77729 0 0 0 0 0 0 0 0 0 0 0 0 0 0 0 0 0 0 0 0 0 0 0 0 0 0 0 0 0 0 0 0 0 0 0 0 -180 -1.59902e-06 -30.3282 0 0 0 0 0 0 0 0 0 -180 -5.48963e-07 -33.4568 0 0 0 
-21.0595 33.9965 221.477 178.83 0.517152 -172.819 0.0890838 -0.0087476 1.71641 -1.49099 0.0780093 3.72215 0 2.8348e-08 0 0 2.8348e-08 0 0 0 0 0 0 0 0 0 0 0 0 0 0 0 0 0 0 0 0 0 0 0 0 0 0 0 0 0 0 0 -180 -2.39045e-06 -30.7542 0 0 0 0 0 0 0 0 0 -180 -1.51235e-06 -32.3115 0 0 0 
-21.1233 33.9915 221.478 178.881 0.411011 -172.852 0.0950415 -0.00783248 1.70881 -1.36891 0.0731316 3.7817 0 0 0 0 0 0 0 0 0 0 0 0 0 0 0 0 0 0 0 0 0 0 0 0 0 0 0 0 0 0 0 0 0 0 0 0 -180 -4.16498e-07 -30.7187 0 0 0 0 0 0 0 0 0 -180 -1.89128e-06 -32.4138 4.26887e-07 0 0 
-21.176 33.9933 221.46 178.934 0.579635 -172.872 0.095042 -0.00742221 1.70876 -1.47078 0.0804244 3.76524 0 0 0 0 0 0 0 0 0 0 0 0 0 0 0 0 0 0 0 0 0 0 0 0 0 0 0 0 0 0 0 0 0 0 0 0 -180 -1.17286e-06 -30.7722 0 0 0 0 0 0 0 0 0 -180 -4.10477e-07 -32.5064 0 0 0 
-21.3021 33.9868 221.398 178.906 0.693748 -172.941 0.0930851 -0.0085115 1.72708 -1.54627 0.0867094 3.92411 0 0 0 0 0 0 0 0 0 0 0 0 0 0 0 0 0 0 0 0 0 0 0 0 0 0 0 0 0 0 0 0 0 0 0 0 -180 8.44209e-07 -30.9746 0 0 0 0 0 0 0 0 0 -180 2.15479e-07 -32.5628 0 0 0 
-21.3687 33.9838 221.397 178.901 0.731889 -172.926 0.101251 -0.0102784 1.72852 -1.73073 0.097798 4.02386 0 0 0 0 0 0 0 0 0 0 0 0 0 0 0 0 0 0 0 0 0 0 0 0 0 0 0 0 0 0 0 0 0 0 0 0 -180 -3.47408e-07 -31.0939 0 0 0 0 0 0 0 0 0 -180 -1.84564e-06 -32.6633 0 0 0 
-21.3996 33.9719 221.373 178.912 0.6804 -172.953 0.0944564 -0.0119556 1.72946 -1.71697 0.0937453 4.059 0 0 0 0 0 0 0 0 0 0 0 0 0 0 0 0 0 0 0 0 0 0 0 0 0 0 0 0 0 0 0 0 0 0 0 0 -180 -2.73765e-07 -31.1991 0 0 0 0 0 0 0 0 0 -180 -2.7501e-07 -32.5715 0 0 0 
-21.4252 33.9493 221.354 178.96 0.811436 -172.958 0.0886155 -0.0133906 1.73038 -1.75363 0.0955847 4.17189 0 0 0 0 0 0 0 0 0 0 0 0 0 0 0 0 0 0 0 0 0 0 0 0 0 0 0 0 0 0 0 0 0 0 0 0 -180 -1.09818e-07 -31.3625 0 0 0 0 0 0 0 0 0 -180 -1.81001e-08 -32.838 0 0 0 
-21.4723 33.9275 221.329 178.976 0.751249 -172.967 0.0949546 -0.0128776 1.73059 -1.70955 0.0954306 4.25271 0 0 0 0 0 0 0 0 0 0 0 0 0 0 0 0 0 0 0 0 0 0 0 0 0 0 0 0 0 0 0 0 0 0 0 0 -180 -2.22444e-07 -31.2096 0 0 0 0 0 0 0 0 0 -180 9.6282e-07 -32.9153 0 0 0 
-21.567 33.9153 221.299 178.971 0.790189 -172.958 0.105677 -0.013118 1.73086 -1.6765 0.0925673 4.26106 0 0 0 0 0 0 0 0 0 0 0 0 0 0 0 0 0 0 0 0 0 0 0 0 0 0 0 0 0 0 0 0 0 0 0 0 -180 -1.68935e-07 -31.2215 0 0 0 0 0 0 0 0 0 -180 1.83479e-06 -33.0939 0 0 0 
-21.6058 33.8961 221.271 178.992 0.728637 -172.955 0.109101 -0.0118497 1.73207 -1.61544 0.0922585 4.31192 0 0 0 0 0 0 0 0 0 0 0 0 0 0 0 0 0 0 0 0 0 0 0 0 0 0 0 0 0 0 0 0 0 0 0 0 -180 5.10081e-07 -31.1802 0 0 0 0 0 0 0 0 0 -180 -1.67016e-06 -33.0377 0 0 0 
-21.6493 33.8741 221.246 179.037 0.88239 -172.952 0.107937 -0.0109984 1.73321 -1.61454 0.0953427 4.35791 0 0 0 0 0 0 0 0 0 0 0 0 0 0 0 0 0 0 0 0 0 0 0 0 0 0 0 0 0 0 0 0 0 0 0 0 -180 2.23729e-07 -31.2405 0 0 0 0 0 0 0 0 0 -180 -2.53491e-08 -33.2586 0 0 0 
-21.6711 33.871 221.245 179.063 0.89366 -172.938 0.105565 -0.00979746 1.73998 -1.72325 0.106473 4.34642 0 0 0 0 0 0 0 0 0 0 0 0 0 0 0 0 0 0 0 0 0 0 0 0 0 0 0 0 0 0 0 0 0 0 0 0 -180 -1.19458e-06 -31.1613 0 0 0 0 0 0 0 0 0 -180 -1.98831e-07 -33.5408 0 0 0 
-21.7051 33.8618 221.235 179.091 0.90565 -172.929 0.108719 -0.00959642 1.74125 -1.76466 0.112444 4.43688 0 6.67011e-09 0 0 6.67011e-09 0 0 0 0 0 0 0 0 0 0 0 0 0 0 0 0 0 0 0 0 0 0 0 0 0 0 0 0 0 0 0 -180 -3.57653e-07 -31.2003 0 0 0 0 0 0 0 0 0 -180 1.2828e-07 -33.5307 0 0 0 
-21.7188 33.8487 221.214 179.111 0.923401 -172.937 0.104356 -0.0109684 1.74441 -1.81711 0.114057 4.47576 0 0 0 0 0 0 0 0 0 0 0 0 0 0 0 0 0 0 0 0 0 0 0 0 0 0 0 0 0 0 0 0 0 0 0 0 -180 -7.09692e-07 -31.1729 0 0 0 0 0 0 0 0 0 -180 1.39808e-06 -33.3452 4.26887e-07 8.53774e-07 3.18055e-15 
-21.7323 33.8439 221.21 179.142 0.931086 -172.913 0.0981199 -0.0102529 1.75631 -1.85724 0.117093 4.39621 0 0 0 0 0 0 0 0 0 0 0 0 0 0 0 0 0 0 0 0 0 0 0 0 0 0 0 0 0 0 0 0 0 0 0 0 -180 -5.70466e-07 -30.9172 -2.13443e-07 -4.26887e-07 3.4151e-06 0 0 0 0 0 0 -180 5.41452e-07 -33.5922 0 0 0 
